# xmcd
# 
# Track frame offsets:
#     150
#     19835
#     36631
#     53819
#     69361
#     88113
#     106092
#     121387
# 
# Disc length: 1924
# 
# Revision: 0
# Processed by: cddbd v1.5.2PL0 Copyright (c) Steve Scherf et al.
# Submitted via: fre:ac v1.0.27
# 
DISCID=67078208
DTITLE=Keith Crisp and Endelouz - Live at Lindsay Street Hall
DYEAR=2011
DGENRE=Country
TTITLE0=Hit Me Where It Hurts
TTITLE1=Heartache Waitin' to Happen
TTITLE2=Next Time
TTITLE3=Omaha
TTITLE4=el Camino
TTITLE5=Small Town
TTITLE6=Dog Chasin'Its Tail
TTITLE7=Miles and Miles
EXTD=
EXTT0=
EXTT1=
EXTT2=
EXTT3=
EXTT4=
EXTT5=
EXTT6=
EXTT7=
PLAYORDER=
